<svg width="20" height="20" viewBox="0 0 20 20" fill="none" xmlns="http://www.w3.org/2000/svg">
<path d="M10 9.6925C12.6068 9.6925 14.72 7.57929 14.72 4.97251C14.72 2.36572 12.6068 0.25251 10 0.25251C7.39324 0.25251 5.28003 2.36572 5.28003 4.97251C5.28003 7.57929 7.39324 9.6925 10 9.6925Z" fill="#888888"/>
<path d="M15.6152 10.4231C15.5408 10.3725 15.3911 10.2753 15.3911 10.2753C14.1846 11.9504 12.2176 13.043 10 13.043C7.78228 13.043 5.81505 11.9501 4.60857 10.2747C4.60857 10.2747 4.48272 10.3571 4.42022 10.3992C1.75382 12.1952 0 15.2423 0 18.6989V19.7475H20V18.6989C20 15.2576 18.2617 12.2223 15.6152 10.4231Z" fill="#888888"/>
</svg>
